<svg xmlns="http://www.w3.org/2000/svg" viewBox="0 0 800 500">
  <rect width="800" height="500" fill="#000000"/>

  <text x="400" y="30" fill="#60a5fa" font-family="system-ui" font-size="16" text-anchor="middle" font-weight="600">
    Iterated Virtual Equipment (2D)
  </text>

  <g stroke="#1c2a3a" stroke-width="0.5" opacity="0.3">
    <line x1="100" y1="50" x2="100" y2="450"/>
    <line x1="250" y1="50" x2="250" y2="450"/>
    <line x1="400" y1="50" x2="400" y2="450"/>
    <line x1="550" y1="50" x2="550" y2="450"/>
    <line x1="700" y1="50" x2="700" y2="450"/>
    <line x1="100" y1="125" x2="700" y2="125"/>
    <line x1="100" y1="250" x2="700" y2="250"/>
    <line x1="100" y1="375" x2="700" y2="375"/>
  </g>

  <g stroke="#64788c" stroke-width="1" opacity="0.2">
    <line x1="210" y1="285" x2="268" y2="165"/>
    <line x1="268" y1="165" x2="340" y2="185"/>
    <line x1="455" y1="220" x2="468" y2="290"/>
    <line x1="520" y1="195" x2="545" y2="255"/>
    <line x1="380" y1="345" x2="268" y2="165"/>
  </g>

  <!-- Core (blue) -->
  <g fill="#5e9cff">
    <circle cx="268" cy="220" r="6"/>
    <circle cx="224" cy="290" r="5"/>
    <circle cx="320" cy="175" r="6"/>
    <circle cx="360" cy="125" r="5"/>
    <circle cx="352" cy="390" r="5"/>
    <circle cx="168" cy="215" r="5"/>
    <circle cx="176" cy="205" r="5"/>
  </g>

  <!-- Globular (green) -->
  <g fill="#4ade80">
    <circle cx="448" cy="220" r="5"/>
    <circle cx="452" cy="325" r="5"/>
    <circle cx="490" cy="345" r="6"/>
    <circle cx="478" cy="205" r="6"/>
    <circle cx="416" cy="285" r="5"/>
    <circle cx="620" cy="175" r="5"/>
  </g>

  <!-- Spiral (yellow) -->
  <g fill="#fbbf24">
    <circle cx="160" cy="275" r="5"/>
    <circle cx="200" cy="120" r="5"/>
    <circle cx="590" cy="125" r="5"/>
    <circle cx="565" cy="145" r="6"/>
    <circle cx="550" cy="160" r="6"/>
    <circle cx="312" cy="345" r="5"/>
  </g>

  <!-- Strict (purple) -->
  <g fill="#c77dff">
    <circle cx="650" cy="255" r="6"/>
    <circle cx="630" cy="240" r="5"/>
    <circle cx="610" cy="225" r="5"/>
    <circle cx="250" cy="375" r="5"/>
  </g>

  <!-- CLI (gray) -->
  <g fill="#a3a3a3">
    <circle cx="580" cy="240" r="4"/>
  </g>

  <g transform="translate(580, 60)">
    <rect width="180" height="140" fill="#0a0a0a" stroke="#1c2a3a" rx="6"/>
    <text x="10" y="20" fill="#e6eef7" font-family="system-ui" font-size="11" font-weight="600">Module Families</text>
    <circle cx="20" cy="40" r="4" fill="#5e9cff"/><text x="32" y="44" fill="#e6eef7" font-family="system-ui" font-size="10">Core</text>
    <circle cx="20" cy="58" r="4" fill="#4ade80"/><text x="32" y="62" fill="#e6eef7" font-family="system-ui" font-size="10">Globular</text>
    <circle cx="20" cy="76" r="4" fill="#fbbf24"/><text x="32" y="80" fill="#e6eef7" font-family="system-ui" font-size="10">Spiral</text>
    <circle cx="20" cy="94" r="4" fill="#c77dff"/><text x="32" y="98" fill="#e6eef7" font-family="system-ui" font-size="10">Strict</text>
    <circle cx="20" cy="112" r="4" fill="#a3a3a3"/><text x="32" y="116" fill="#e6eef7" font-family="system-ui" font-size="10">CLI</text>
  </g>

  <text x="120" y="480" fill="#6b7d8c" font-family="system-ui" font-size="10">
    24 declarations | 5 module families | Click to explore
  </text>
</svg>
